<svg width="24" height="24" viewBox="0 0 24 24" fill="none" xmlns="http://www.w3.org/2000/svg">
<path fill-rule="evenodd" clip-rule="evenodd" d="M10.4783 4.93163C10.8503 4.62396 11.3953 4.4234 12 4.4234C12.6047 4.4234 13.1497 4.62396 13.5217 4.93163C13.8873 5.23394 14.037 5.59183 14.037 5.90713V6.64179C13.3646 6.62324 12.6858 6.61358 12 6.61358C11.3165 6.61358 10.6372 6.62258 9.96296 6.64019V5.90713C9.96296 5.59183 10.1127 5.23394 10.4783 4.93163ZM7.51852 7.33648V5.90713C7.51852 4.79273 8.05553 3.77946 8.91242 3.07081C9.76284 2.36753 10.8759 2.00012 12 2.00012C13.1241 2.00012 14.2372 2.36753 15.0876 3.07081C15.9445 3.77946 16.4815 4.79273 16.4815 5.90713V7.46533C16.4823 7.47992 16.4827 7.49461 16.4827 7.50939V22.0995C16.4827 22.5263 16.1478 22.8799 15.7178 22.9021C14.4996 22.9649 13.2605 23.0001 12 23.0001C10.7308 23.0001 9.47911 22.9426 8.25466 22.8609C7.82926 22.8326 7.50061 22.4809 7.50061 22.0581V7.50556C7.50061 7.44764 7.50678 7.39107 7.51852 7.33648ZM19.1365 22.6552C18.8048 22.6856 18.5197 22.426 18.5197 22.0958V7.56836C18.5197 7.20703 18.8317 6.92296 19.1947 6.95682C20.9206 7.11784 22.3734 8.38822 22.6389 10.1295C22.869 11.6383 23 13.2072 23 14.8069C23 16.3956 22.8568 17.9361 22.6312 19.4251C22.364 21.1893 20.8961 22.4941 19.1365 22.6552ZM5.46357 7.59404C5.46357 7.21506 5.13629 6.91706 4.75574 6.95313C3.0564 7.11423 1.62108 8.36003 1.35654 10.0792C1.12155 11.6064 1 13.1949 1 14.8069C1 16.3634 1.12123 17.8762 1.33988 19.3474C1.61204 21.1788 3.18051 22.452 4.95547 22.6008L5.34697 22.6336C5.40971 22.6389 5.46357 22.5898 5.46357 22.5274V7.59404Z" fill="white" fill-opacity="0.4"/>
</svg>
