<svg width="24" height="24" viewBox="0 0 24 24" fill="none" xmlns="http://www.w3.org/2000/svg">
<path fill-rule="evenodd" clip-rule="evenodd" d="M9.88121 1.00012C9.62801 1.00012 9.37953 1.06982 9.16214 1.2018C9.13193 1.22015 9.10294 1.2405 9.07534 1.26271C8.84475 1.44843 8.68916 1.71365 8.63803 2.00814C8.58773 2.29786 8.64197 2.59614 8.7905 2.84827C10.081 5.12374 10.5883 7.9275 9.9113 10.0945C9.76937 10.5487 9.44011 10.7576 9.08569 10.7799C8.71627 10.8031 8.29352 10.62 8.03226 10.1707C7.87768 9.90487 7.73832 9.62929 7.61519 9.34527C7.52424 9.13547 7.3506 8.97429 7.1368 8.90121C6.92301 8.82815 6.68883 8.84994 6.49164 8.96126C5.40771 9.57319 4.50939 10.4753 3.89423 11.5695C3.27907 12.6638 2.97057 13.9084 3.00221 15.1683L3.00261 15.1805C3.09029 17.3815 3.83657 19.356 5.29829 20.7803C6.76193 22.2064 8.85955 23.0001 11.4966 23.0001C14.1454 23.0001 16.2397 22.1598 17.697 20.7162C19.1497 19.2772 19.8985 17.3092 19.9906 15.1834C20.2062 10.1271 16.7154 4.08533 10.5563 1.1762C10.3497 1.06082 10.1175 1.00012 9.88121 1.00012Z" fill="white" fill-opacity="0.4"/>
</svg>
