<svg width="24" height="24" viewBox="0 0 24 24" fill="none" xmlns="http://www.w3.org/2000/svg">
<path fill-rule="evenodd" clip-rule="evenodd" d="M1 12.0001C1 5.92499 5.92487 1.00012 12 1.00012C18.0751 1.00012 23 5.92499 23 12.0001C23 18.0753 18.0751 23.0001 12 23.0001C5.92487 23.0001 1 18.0753 1 12.0001ZM8.26823 9.71629C8.26823 7.65528 9.93902 5.9845 12 5.9845C14.0611 5.9845 15.7318 7.65528 15.7318 9.71629C15.7318 11.7773 14.0611 13.4481 12 13.4481C9.93902 13.4481 8.26823 11.7773 8.26823 9.71629ZM17.6881 17.7153C17.8819 18.0097 17.8203 18.3993 17.5501 18.6259C16.0486 19.8849 14.1129 20.643 12.0002 20.643C9.8874 20.643 7.95169 19.8849 6.4502 18.6259C6.18001 18.3993 6.11844 18.0097 6.31225 17.7151C6.68904 17.1425 7.15283 16.6259 7.69135 16.1857C8.90737 15.1918 10.4296 14.6488 12.0001 14.6488C13.5706 14.6488 15.0929 15.1918 16.3089 16.1857C16.8474 16.6259 17.3113 17.1425 17.6881 17.7153Z" fill="white" fill-opacity="0.4"/>
</svg>
