<svg width="24" height="24" viewBox="0 0 24 24" fill="none" xmlns="http://www.w3.org/2000/svg">
<path fill-rule="evenodd" clip-rule="evenodd" d="M7.59489 3.78142L9.1822 7.17756C7.13627 7.49387 5.41875 8.25618 4.11964 9.47428C2.35729 11.1267 1.48828 13.5022 1.48828 16.3895C1.48828 17.8251 1.70199 19.0053 2.17713 19.9553C2.6633 20.9275 3.39966 21.611 4.34014 22.0716C5.25638 22.5203 6.33858 22.7446 7.51476 22.8631C8.69355 22.9819 10.0333 23.0001 11.4883 23.0001C12.9434 23.0001 14.2831 22.9819 15.4619 22.8631C16.6381 22.7446 17.7202 22.5203 18.6365 22.0716C19.577 21.611 20.3133 20.9275 20.7995 19.9553C21.2746 19.0053 21.4883 17.8251 21.4883 16.3895C21.4883 13.5473 20.6464 11.2007 18.9378 9.5511C17.7005 8.35658 16.0699 7.58664 14.1281 7.23362L14.1484 7.19124L15.7421 3.78142C15.8723 3.50273 15.9987 3.12027 15.9722 2.71988C15.9425 2.27092 15.7062 1.77087 15.1169 1.51072L14.7338 2.28161L15.1169 1.51072C14.6731 1.31477 14.1062 1.19248 13.5378 1.11618C12.9546 1.0379 12.3075 1.00012 11.6685 1.00012C11.0294 1.00012 10.3823 1.0379 9.79913 1.11618C9.23074 1.19248 8.66385 1.31477 8.21999 1.51072C7.63074 1.77087 7.39446 2.27092 7.36472 2.71988C7.3382 3.12027 7.46464 3.50273 7.59489 3.78142Z" fill="white" fill-opacity="0.4"/>
</svg>
