<svg width="24" height="24" viewBox="0 0 24 24" fill="none" xmlns="http://www.w3.org/2000/svg">
<path fill-rule="evenodd" clip-rule="evenodd" d="M7.97318 4.4612C7.32132 3.43992 5.75936 3.49198 5.1807 4.54972C4.76399 5.31144 5.07772 6.26262 5.89494 6.64758L7.01178 7.17365C7.06703 7.19968 7.12766 7.21421 7.18893 7.21052C7.72223 7.17846 8.27473 7.15261 8.84835 7.13274C9.20879 7.12026 9.42326 6.73312 9.2329 6.43488L7.97318 4.4612ZM14.7671 6.43488C14.5768 6.73312 14.7912 7.12026 15.1517 7.13274C15.7253 7.15261 16.2778 7.17846 16.8111 7.21052C16.8724 7.21421 16.933 7.19968 16.9883 7.17365L18.1051 6.64758C18.9224 6.26262 19.236 5.31144 18.8194 4.54972C18.2407 3.49198 16.6787 3.43992 16.0269 4.4612L14.7671 6.43488ZM20.6636 8.83633C20.4811 8.63266 20.486 8.31929 20.6722 8.11874C21.8685 6.83074 22.1836 4.90288 21.2896 3.26884C19.6958 0.355197 15.4382 0.220801 13.6496 3.0231L12.3962 4.98673C12.2137 5.27267 11.7863 5.27267 11.6038 4.98673L10.3505 3.0231C8.56188 0.220801 4.30434 0.355197 2.71036 3.26884C1.81639 4.90288 2.1316 6.83074 3.32773 8.11876C3.51399 8.31931 3.51897 8.63268 3.33635 8.83633C2.66781 9.58188 2.23591 10.5372 2.14795 11.5916C2.13058 11.7998 2.11459 12.0087 2.10005 12.2184C2.08201 12.4788 2.29511 12.6981 2.56312 12.6981H10.3674C10.625 12.6981 10.8339 12.4948 10.8339 12.244V9.90944C10.8339 9.2824 11.356 8.7741 12.0001 8.7741C12.6441 8.7741 13.1663 9.2824 13.1663 9.90944V12.244C13.1663 12.4948 13.3751 12.6981 13.6327 12.6981H21.4369C21.705 12.6981 21.9181 12.4788 21.9 12.2184C21.8854 12.0087 21.8694 11.7998 21.852 11.5916C21.7641 10.5372 21.3322 9.58186 20.6636 8.83633ZM10.8339 15.4229C10.8339 15.1721 10.625 14.9688 10.3674 14.9688H2.08079C2.03622 14.9688 2.00006 15.004 2 15.0474C2 16.2231 2.05374 17.3739 2.14797 18.5034C2.34221 20.8316 4.21378 22.6774 6.60697 22.8464C7.76043 22.9278 9.00503 22.9783 10.362 23.0001C10.6217 23.0042 10.8339 22.7999 10.8339 22.547V15.4229ZM13.6381 23.0001C13.3784 23.0042 13.1663 22.7999 13.1663 22.547V15.4229C13.1663 15.1721 13.3751 14.9688 13.6327 14.9688H21.9192C21.9638 14.9688 22 15.004 22 15.0474C22 16.2231 21.9463 17.3739 21.852 18.5034C21.6578 20.8316 19.7863 22.6774 17.3931 22.8464C16.2396 22.9278 14.9951 22.9783 13.6381 23.0001Z" fill="white" fill-opacity="0.2"/>
</svg>
